<svg xmlns="http://www.w3.org/2000/svg" viewBox="0 0 256 256" role="img" aria-label="HALO inward-pointed ring"><defs><linearGradient id="sunset" x1="35" y1="30" x2="213" y2="225" gradientUnits="userSpaceOnUse"><stop stop-color="#FF9E00"/><stop offset=".42" stop-color="#FF6D00"/><stop offset="1" stop-color="#9D4EDD"/></linearGradient></defs><path d="M24 128a104 104 0 1 0 208 0a104 104 0 1 0-208 0M46 128a82 82 0 1 0 164 0a82 82 0 1 0-164 0" fill="url(#sunset)" fill-rule="evenodd"/><path d="M120.540 45.336L128.000 73.000L135.460 45.336ZM181.177 64.273L171.841 84.159L191.727 74.823ZM210.664 120.540L183.000 128.000L210.664 135.460ZM191.727 181.177L171.841 171.841L181.177 191.727ZM135.460 210.664L128.000 183.000L120.540 210.664ZM74.823 191.727L84.159 171.841L64.273 181.177ZM45.336 135.460L73.000 128.000L45.336 120.540ZM64.273 74.823L84.159 84.159L74.823 64.273Z" fill="url(#sunset)"/></svg>
